<svg xmlns="http://www.w3.org/2000/svg" width="250" height="362" viewBox="0 0 250 362">
  <defs>
    <style>
      .cls-1 {
        fill: #274c77;
        fill-rule: evenodd;
      }
    </style>
  </defs>
  <path id="Forma_2" data-name="Forma 2" class="cls-1" d="M8,241l22,14s-7.47-39.483,20-21c29.632,19.938,38.182,58.7,38,67l30,23s5.1-67.456-65-115C-11.75,165.081,8,241,8,241ZM107,6L81,15S1.456,41.366,60,66c68.885,28.986,130.541,5.463,154-7s27-15,27-15L204,33,177,47s-49.116,22.583-83,7c-32.862-15.113,13-30,13-30l27-10Z"/>
</svg>
