<svg xmlns="http://www.w3.org/2000/svg" width="250" height="362" viewBox="0 0 250 362">
  <defs>
    <style>
      .cls-1 {
        fill: #274c77;
        fill-rule: evenodd;
      }
    </style>
  </defs>
  <path id="Forma_1" data-name="Forma 1" class="cls-1" d="M214,59s-11.151,165.472-14,184-8.749,38.72-22,53c-18.223,19.637-30.247,37.729-32-2l-28,29s1.483,50.776,36,21c38-32.781,59.906-67.079,66-122,5.067-45.662,21-178,21-178ZM107,24s7,158.223,7,175-6.248,34.223-18,42-28.61,22.888-39-2L30,255s0.193,60.873,65,16c45.674-31.626,41-86,41-86L134,13Z"/>
</svg>
